{"title":"Paranormal.Challenge.S01E01.Rolling.Hills.Asylum.HDTV.XviD-tNe.a","uid":6477643,"size":365789184,"categoryP":"video","categoryS":"tv_shows","magnet":"?xt=urn:btih:29ae0ff0cd077c20fec2967f74040d09af8c2ade&amp;dn=Paranormal.Challenge.S01E01.Rolling.Hills.Asylum.HDTV.XviD-tNe.a&amp;tr=udp%3A%2F%2Ftracker.openbittorrent.com%3A80&amp;tr=udp%3A%2F%2Fopen.demonii.com%3A1337&amp;tr=udp%3A%2F%2Ftracker.coppersurfer.tk%3A6969&amp;tr=udp%3A%2F%2Fexodus.desync.com%3A6969","seeders":0,"leechers":1,"uploader":"trialNerror","files":1,"time":1308375850,"description":"Format                           : AVI\nFormat/Info                      : Audio Video Interleave\nFile size                        : 349 MiB\nDuration                         : 42mn 25s\nOverall bit rate                 : 1 150 Kbps\nWriting application              : VirtualDubMod 1.5.10.2 (build 2542/release)\nWriting library                  : VirtualDubMod build 2542/release\n\nVideo\nID                               : 0\nFormat                           : MPEG-4 Visual\nFormat profile                   : Advanced Simple@L5\nFormat settings, BVOP            : Yes\nFormat settings, QPel            : No\nFormat settings, GMC             : No warppoints\nFormat settings, Matrix          : Default (H.263)\nMuxing mode                      : Packed bitstream\nCodec ID                         : XVID\nCodec ID/Hint                    : XviD\nDuration                         : 42mn 25s\nBit rate                         : 1 008 Kbps\nWidth                            : 624 pixels\nHeight                           : 352 pixels\nDisplay aspect ratio             : 16:9\nFrame rate                       : 29.970 fps\nColor space                      : YUV\nChroma subsampling               : 4:2:0\nBit depth                        : 8 bits\nScan type                        : Progressive\nBits/(Pixel*Frame)               : 0.153\nStream size                      : 306 MiB (88%)\nWriting library                  : XviD 58\n\nAudio\nID                               : 1\nFormat                           : MPEG Audio\nFormat version                   : Version 1\nFormat profile                   : Layer 3\nMode                             : Joint stereo\nMode extension                   : MS Stereo\nCodec ID                         : 55\nCodec ID/Hint                    : MP3\nDuration                         : 42mn 25s\nBit rate mode                    : Variable\nBit rate                         : 128 Kbps\nChannel(s)                       : 2 channels\nSampling rate                    : 48.0 KHz\nStream size                      : 38.8 MiB (11%)\nAlignment                        : Aligned on interleaves\nInterleave, duration             : 24 ms (0.72 video frame)\nInterleave, preload duration     : 558 ms","torrent":{"xt":"urn:btih:29ae0ff0cd077c20fec2967f74040d09af8c2ade","amp;dn":"Paranormal.Challenge.S01E01.Rolling.Hills.Asylum.HDTV.XviD-tNe.a","amp;tr":["udp%3A%2F%2Ftracker.openbittorrent.com%3A80","udp%3A%2F%2Fopen.demonii.com%3A1337","udp%3A%2F%2Ftracker.coppersurfer.tk%3A6969","udp%3A%2F%2Fexodus.desync.com%3A6969"],"infoHash":"29ae0ff0cd077c20fec2967f74040d09af8c2ade","infoHashBuffer":{"type":"Buffer","data":[41,174,15,240,205,7,124,32,254,194,150,127,116,4,13,9,175,140,42,222]},"announce":[],"urlList":[]}}